<?xml version="1.0" encoding="utf-8"?>
<!-- Generator: Adobe Illustrator 24.3.0, SVG Export Plug-In . SVG Version: 6.00 Build 0)  -->
<svg version="1.1" id="Layer_1" xmlns="http://www.w3.org/2000/svg" xmlns:xlink="http://www.w3.org/1999/xlink" x="0px" y="0px"
	 viewBox="0 150 500 500" style="enable-background:new 0 150 500 500;" xml:space="preserve">
<style type="text/css">
	.st0{fill:#FFC30C;}
	.st1{fill:#FFFFFF;}
</style>
<g>
	<g>
		<path class="st0" d="M172.04,279.73l79.61,120.42c5.85,7.88,16.98,9.53,24.87,3.68c7.88-5.85,9.53-16.98,3.68-24.87l-79.61-120.42
			c-5.85-7.88-16.98-9.53-24.87-3.68C167.84,260.72,166.19,271.85,172.04,279.73z"/>
	</g>
	<g>
		<path class="st0" d="M281.53,279.73l79.6,120.42c5.85,7.88,16.98,9.53,24.87,3.68c7.88-5.85,9.53-16.98,3.68-24.87l-79.61-120.42
			c-5.85-7.88-16.98-9.53-24.87-3.68C277.33,260.72,275.68,271.85,281.53,279.73z"/>
	</g>
	<g>
		<path class="st0" d="M336.28,279.73l79.6,120.42c5.85,7.88,16.98,9.53,24.87,3.68c7.88-5.85,9.53-16.98,3.68-24.87l-79.61-120.42
			c-5.85-7.88-16.98-9.53-24.87-3.68C332.08,260.72,330.43,271.85,336.28,279.73z"/>
	</g>
	<g>
		<path class="st0" d="M389.53,279.73l50.68,77.43c5.85,7.88,16.98,9.53,24.87,3.68c7.88-5.85,9.53-16.98,3.68-24.87l-50.68-77.43
			c-5.85-7.88-16.98-9.53-24.87-3.68C385.32,260.72,383.67,271.85,389.53,279.73z"/>
	</g>
	<g>
		<path class="st0" d="M441.69,278.76l19.26,27.61c5.85,7.88,16.98,9.53,24.87,3.68c7.88-5.85,9.53-16.98,3.68-24.87l-19.26-27.61
			c-5.85-7.88-16.98-9.53-24.87-3.68C437.49,259.75,435.84,270.88,441.69,278.76z"/>
	</g>
	<path class="st1" d="M171.55,221.89l-21.24-24.81c-3.69-4.22-8.93-6.27-14.13-6.05c-0.27-0.01-0.54-0.02-0.82-0.02H22.18
		c-9.82,0-17.78,7.96-17.78,17.78c0,9.82,7.96,17.78,17.78,17.78h106.57l16.04,18.74c6.46,7.39,17.69,8.14,25.08,1.67
		C177.26,240.5,178.01,229.27,171.55,221.89z"/>
	<g>
		
			<ellipse transform="matrix(0.1602 -0.9871 0.9871 0.1602 -181.2348 671.296)" class="st1" cx="303.89" cy="442.16" rx="28.45" ry="28.45"/>
	</g>
	<g>
		<circle class="st1" cx="401.94" cy="442.16" r="28.45"/>
	</g>
	<g>
		<path class="st0" d="M272.05,407.14l42.05-0.79c12.26-0.52,21.86-8.89,21.44-18.7c-0.41-9.81-10.69-17.34-22.94-16.82l-42.05,0.79
			c-12.26,0.52-21.86,8.89-21.44,18.7C249.52,400.13,259.79,407.66,272.05,407.14z"/>
	</g>
	<g>
		<path class="st0" d="M194.88,287.24l49.22,0.03c14.36-0.28,25.84-8.46,25.65-18.28c-0.19-9.82-11.98-17.55-26.34-17.27
			l-49.22-0.03c-14.36,0.28-25.84,8.46-25.65,18.28C168.73,279.79,180.52,287.52,194.88,287.24z"/>
	</g>
</g>
</svg>
