<?xml version="1.0" encoding="utf-8"?>
<!-- Generator: Adobe Illustrator 24.2.1, SVG Export Plug-In . SVG Version: 6.00 Build 0)  -->
<svg version="1.1" id="Layer_1" xmlns="http://www.w3.org/2000/svg" xmlns:xlink="http://www.w3.org/1999/xlink" x="0px" y="0px"
	 	 height="60px"

	 viewBox="0 0 500 500" style="enable-background:new 0 0 500 500;" xml:space="preserve">
<style type="text/css">
	.st0{fill:#679186;stroke:#264E70;stroke-miterlimit:10;}
	.st1{fill:#FDEBD3;stroke:#264E70;stroke-miterlimit:10;}
</style>
<path class="st1" d="M397.55,385.14c0,0,1,73-71,73s-72,0-72,0h-216v-146c0,0-4-73,70-72s145,0,145,0s8,72-67,73s-75,1-75,1v71
	H397.55z"/>
<path class="st1" d="M116.55,95.14c0,0-1-73,71-73s72,0,72,0h216v146c0,0,4,73-70,72s-145,0-145,0s-8-72,67-73s75-1,75-1v-71H116.55
	z"/>
</svg>
